<svg width="32" height="32" viewBox="0 0 32 32" fill="none" xmlns="http://www.w3.org/2000/svg">
<path d="M4 18.6654C4 23.6934 4 26.208 5.47585 27.7694C6.95044 29.332 9.32541 29.332 14.0741 29.332L16.5926 29.332C21.3413 29.332 23.7162 29.332 25.1908 27.7694C26.6667 26.208 26.6667 23.6934 26.6667 18.6654L26.6667 13.332C26.6667 8.30403 26.6667 5.78937 25.1908 4.22803C23.7162 2.66537 21.3413 2.66536 16.5926 2.66537L14.0741 2.66537C9.32541 2.66537 6.95044 2.66537 5.47585 4.22803C4 5.78937 4 8.30403 4 13.332L4 18.6654Z" stroke="black" stroke-width="2"/>
<path d="M10.2812 15.9987L20.3553 15.9987M10.2812 21.332L20.3553 21.332M10.2812 10.6654L16.5775 10.6654" stroke="black" stroke-width="2" stroke-linecap="round"/>
</svg>
