<svg width="80" height="23" viewBox="0 0 80 23" fill="none" xmlns="http://www.w3.org/2000/svg">
<rect x="0.75" width="79" height="23" rx="8" fill="#FC0707" fill-opacity="0.16"/>
<path d="M20.1635 10H19.1067C19.0442 9.69602 18.9348 9.42898 18.7786 9.19886C18.6252 8.96875 18.4377 8.77557 18.2161 8.61932C17.9973 8.46023 17.7544 8.34091 17.4874 8.26136C17.2203 8.18182 16.9419 8.14205 16.6522 8.14205C16.1238 8.14205 15.6451 8.27557 15.2161 8.54261C14.79 8.80966 14.4505 9.20312 14.1976 9.72301C13.9476 10.2429 13.8226 10.8807 13.8226 11.6364C13.8226 12.392 13.9476 13.0298 14.1976 13.5497C14.4505 14.0696 14.79 14.4631 15.2161 14.7301C15.6451 14.9972 16.1238 15.1307 16.6522 15.1307C16.9419 15.1307 17.2203 15.0909 17.4874 15.0114C17.7544 14.9318 17.9973 14.8139 18.2161 14.6577C18.4377 14.4986 18.6252 14.304 18.7786 14.0739C18.9348 13.8409 19.0442 13.5739 19.1067 13.2727H20.1635C20.084 13.7187 19.9391 14.1179 19.7289 14.4702C19.5186 14.8224 19.2573 15.1222 18.9448 15.3693C18.6323 15.6136 18.2814 15.7997 17.8922 15.9276C17.5059 16.0554 17.0925 16.1193 16.6522 16.1193C15.9078 16.1193 15.2459 15.9375 14.6664 15.5739C14.0868 15.2102 13.6309 14.6932 13.2985 14.0227C12.9661 13.3523 12.7999 12.5568 12.7999 11.6364C12.7999 10.7159 12.9661 9.92045 13.2985 9.25C13.6309 8.57955 14.0868 8.0625 14.6664 7.69886C15.2459 7.33523 15.9078 7.15341 16.6522 7.15341C17.0925 7.15341 17.5059 7.21733 17.8922 7.34517C18.2814 7.47301 18.6323 7.66051 18.9448 7.90767C19.2573 8.15199 19.5186 8.45028 19.7289 8.80256C19.9391 9.15199 20.084 9.55114 20.1635 10ZM23.661 16.1534C23.2463 16.1534 22.8699 16.0753 22.5318 15.919C22.1937 15.7599 21.9252 15.5312 21.7264 15.233C21.5275 14.9318 21.4281 14.5682 21.4281 14.142C21.4281 13.767 21.502 13.4631 21.6497 13.2301C21.7974 12.9943 21.9949 12.8097 22.242 12.6761C22.4892 12.5426 22.7619 12.4432 23.0602 12.3778C23.3613 12.3097 23.6639 12.2557 23.9679 12.2159C24.3656 12.1648 24.688 12.1264 24.9352 12.1009C25.1852 12.0724 25.367 12.0256 25.4806 11.9602C25.5971 11.8949 25.6554 11.7812 25.6554 11.6193V11.5852C25.6554 11.1648 25.5403 10.8381 25.3102 10.6051C25.0829 10.3722 24.7377 10.2557 24.2747 10.2557C23.7946 10.2557 23.4181 10.3608 23.1454 10.571C22.8727 10.7812 22.6809 11.0057 22.5701 11.2443L21.6156 10.9034C21.786 10.5057 22.0133 10.196 22.2974 9.97443C22.5843 9.75 22.8968 9.59375 23.2349 9.50568C23.5758 9.41477 23.911 9.36932 24.2406 9.36932C24.4508 9.36932 24.6923 9.39489 24.965 9.44602C25.2406 9.49432 25.5062 9.59517 25.7619 9.74858C26.0204 9.90199 26.2349 10.1335 26.4054 10.4432C26.5758 10.7528 26.661 11.1676 26.661 11.6875V16H25.6554V15.1136H25.6042C25.536 15.2557 25.4224 15.4077 25.2633 15.5696C25.1042 15.7315 24.8926 15.8693 24.6284 15.983C24.3642 16.0966 24.0417 16.1534 23.661 16.1534ZM23.8145 15.25C24.2122 15.25 24.5474 15.1719 24.8201 15.0156C25.0957 14.8594 25.3031 14.6577 25.4423 14.4105C25.5843 14.1634 25.6554 13.9034 25.6554 13.6307V12.7102C25.6127 12.7614 25.519 12.8082 25.3741 12.8509C25.2321 12.8906 25.0673 12.9261 24.8798 12.9574C24.6951 12.9858 24.5147 13.0114 24.3386 13.0341C24.1653 13.054 24.0247 13.071 23.9167 13.0852C23.6554 13.1193 23.411 13.1747 23.1838 13.2514C22.9593 13.3253 22.7775 13.4375 22.6383 13.5881C22.502 13.7358 22.4338 13.9375 22.4338 14.1932C22.4338 14.5426 22.563 14.8068 22.8216 14.9858C23.0829 15.1619 23.4139 15.25 23.8145 15.25ZM29.5023 12.0625V16H28.4966V9.45455H29.4682V10.4773H29.5534C29.7069 10.1449 29.9398 9.87784 30.2523 9.67614C30.5648 9.47159 30.9682 9.36932 31.4625 9.36932C31.9057 9.36932 32.2935 9.46023 32.6259 9.64205C32.9583 9.82102 33.2168 10.0938 33.4015 10.4602C33.5861 10.8239 33.6784 11.2841 33.6784 11.8409V16H32.6728V11.9091C32.6728 11.3949 32.5392 10.9943 32.2722 10.7074C32.0051 10.4176 31.6387 10.2727 31.1728 10.2727C30.8517 10.2727 30.5648 10.3423 30.312 10.4815C30.062 10.6207 29.8645 10.8239 29.7196 11.0909C29.5748 11.358 29.5023 11.6818 29.5023 12.0625ZM38.1752 16.1364C37.5616 16.1364 37.0332 15.9915 36.59 15.7017C36.1468 15.4119 35.8059 15.0128 35.5673 14.5043C35.3287 13.9957 35.2093 13.4148 35.2093 12.7614C35.2093 12.0966 35.3315 11.5099 35.5758 11.0014C35.823 10.4901 36.1667 10.0909 36.6071 9.80398C37.0502 9.5142 37.5673 9.36932 38.1582 9.36932C38.6184 9.36932 39.0332 9.45455 39.4025 9.625C39.7718 9.79545 40.0744 10.0341 40.3102 10.3409C40.546 10.6477 40.6923 11.0057 40.7491 11.4148H39.7434C39.6667 11.1165 39.4963 10.8523 39.2321 10.6222C38.9707 10.3892 38.6184 10.2727 38.1752 10.2727C37.7832 10.2727 37.4395 10.375 37.144 10.5795C36.8514 10.7812 36.6227 11.0668 36.4579 11.4361C36.296 11.8026 36.215 12.233 36.215 12.7273C36.215 13.233 36.2946 13.6733 36.4537 14.0483C36.6156 14.4233 36.8429 14.7145 37.1355 14.9219C37.4309 15.1293 37.7775 15.233 38.1752 15.233C38.4366 15.233 38.6738 15.1875 38.8869 15.0966C39.1 15.0057 39.2804 14.875 39.4281 14.7045C39.5758 14.5341 39.6809 14.3295 39.7434 14.0909H40.7491C40.6923 14.4773 40.5517 14.8253 40.3272 15.1349C40.1056 15.4418 39.8116 15.6861 39.4451 15.8679C39.0815 16.0469 38.6582 16.1364 38.1752 16.1364ZM44.9636 16.1364C44.3329 16.1364 43.7889 15.9972 43.3315 15.7188C42.877 15.4375 42.5261 15.0455 42.2789 14.5426C42.0346 14.0369 41.9125 13.4489 41.9125 12.7784C41.9125 12.108 42.0346 11.517 42.2789 11.0057C42.5261 10.4915 42.8699 10.0909 43.3102 9.80398C43.7534 9.5142 44.2704 9.36932 44.8613 9.36932C45.2022 9.36932 45.5389 9.42614 45.8713 9.53977C46.2037 9.65341 46.5062 9.83807 46.7789 10.0938C47.0517 10.3466 47.269 10.6818 47.4309 11.0994C47.5929 11.517 47.6738 12.0312 47.6738 12.642V13.0682H42.6284V12.1989H46.6511C46.6511 11.8295 46.5772 11.5 46.4295 11.2102C46.2846 10.9205 46.0772 10.6918 45.8074 10.5241C45.5403 10.3565 45.225 10.2727 44.8613 10.2727C44.4608 10.2727 44.1142 10.3722 43.8216 10.571C43.5318 10.767 43.3088 11.0227 43.1525 11.3381C42.9963 11.6534 42.9181 11.9915 42.9181 12.3523V12.9318C42.9181 13.4261 43.0034 13.8452 43.1738 14.1889C43.3471 14.5298 43.5872 14.7898 43.894 14.9688C44.2008 15.1449 44.5574 15.233 44.9636 15.233C45.2278 15.233 45.4664 15.196 45.6795 15.1222C45.8954 15.0455 46.0815 14.9318 46.2377 14.7812C46.394 14.6278 46.5147 14.4375 46.6 14.2102L47.5716 14.483C47.4693 14.8125 47.2974 15.1023 47.0559 15.3523C46.8145 15.5994 46.5162 15.7926 46.161 15.9318C45.8059 16.0682 45.4068 16.1364 44.9636 16.1364ZM50.2093 7.27273V16H49.2037V7.27273H50.2093ZM53.057 7.27273V16H52.0513V7.27273H53.057ZM57.6433 16.1364C57.0126 16.1364 56.4686 15.9972 56.0112 15.7188C55.5566 15.4375 55.2058 15.0455 54.9586 14.5426C54.7143 14.0369 54.5922 13.4489 54.5922 12.7784C54.5922 12.108 54.7143 11.517 54.9586 11.0057C55.2058 10.4915 55.5495 10.0909 55.9899 9.80398C56.4331 9.5142 56.9501 9.36932 57.541 9.36932C57.8819 9.36932 58.2186 9.42614 58.551 9.53977C58.8833 9.65341 59.1859 9.83807 59.4586 10.0938C59.7314 10.3466 59.9487 10.6818 60.1106 11.0994C60.2725 11.517 60.3535 12.0312 60.3535 12.642V13.0682H55.3081V12.1989H59.3308C59.3308 11.8295 59.2569 11.5 59.1092 11.2102C58.9643 10.9205 58.7569 10.6918 58.487 10.5241C58.22 10.3565 57.9047 10.2727 57.541 10.2727C57.1404 10.2727 56.7939 10.3722 56.5012 10.571C56.2115 10.767 55.9885 11.0227 55.8322 11.3381C55.676 11.6534 55.5978 11.9915 55.5978 12.3523V12.9318C55.5978 13.4261 55.6831 13.8452 55.8535 14.1889C56.0268 14.5298 56.2669 14.7898 56.5737 14.9688C56.8805 15.1449 57.237 15.233 57.6433 15.233C57.9075 15.233 58.1461 15.196 58.3592 15.1222C58.5751 15.0455 58.7612 14.9318 58.9174 14.7812C59.0737 14.6278 59.1944 14.4375 59.2797 14.2102L60.2512 14.483C60.149 14.8125 59.9771 15.1023 59.7356 15.3523C59.4941 15.5994 59.1958 15.7926 58.8407 15.9318C58.4856 16.0682 58.0865 16.1364 57.6433 16.1364ZM64.3549 16.1364C63.8095 16.1364 63.3279 15.9986 62.9103 15.723C62.4927 15.4446 62.166 15.0526 61.9302 14.5469C61.6944 14.0384 61.5765 13.4375 61.5765 12.7443C61.5765 12.0568 61.6944 11.4602 61.9302 10.9545C62.166 10.4489 62.4941 10.0582 62.9146 9.78267C63.335 9.5071 63.8208 9.36932 64.372 9.36932C64.7981 9.36932 65.1348 9.44034 65.3819 9.58239C65.6319 9.72159 65.8223 9.88068 65.9529 10.0597C66.0865 10.2358 66.1902 10.3807 66.264 10.4943H66.3493V7.27273H67.3549V16H66.3833V14.9943H66.264C66.1902 15.1136 66.085 15.2642 65.9487 15.446C65.8123 15.625 65.6177 15.7855 65.3649 15.9276C65.112 16.0668 64.7754 16.1364 64.3549 16.1364ZM64.4913 15.233C64.8947 15.233 65.2356 15.1278 65.514 14.9176C65.7924 14.7045 66.0041 14.4105 66.149 14.0355C66.2939 13.6577 66.3663 13.2216 66.3663 12.7273C66.3663 12.2386 66.2953 11.8111 66.1532 11.4446C66.0112 11.0753 65.801 10.7884 65.5225 10.5838C65.2441 10.3764 64.9004 10.2727 64.4913 10.2727C64.0652 10.2727 63.71 10.3821 63.426 10.6009C63.1447 10.8168 62.9331 11.1108 62.791 11.483C62.6518 11.8523 62.5822 12.267 62.5822 12.7273C62.5822 13.1932 62.6532 13.6165 62.7953 13.9972C62.9402 14.375 63.1532 14.6761 63.4345 14.9006C63.7186 15.1222 64.0708 15.233 64.4913 15.233Z" fill="#E82121"/>
</svg>
