<svg width="24" height="24" viewBox="0 0 24 24" fill="none" xmlns="http://www.w3.org/2000/svg">
<g clip-path="url(#clip0_1049_9955)">
<path d="M10 11.3359H12V12.6693H10V11.3359Z" fill="#9094A0"/>
<path d="M17.632 9.45028C16.4497 7.51548 14.8367 5.87969 12.9187 4.67028C12.0326 4.10871 11.0226 3.77257 9.9767 3.69123C8.93082 3.60988 7.88094 3.7858 6.9187 4.20361C6.07703 4.60061 5.34466 5.19653 4.78482 5.93989C4.22497 6.68325 3.85449 7.55171 3.70536 8.47028C3.65203 8.78361 3.61203 9.08361 3.57203 9.37695C2.94786 9.47811 2.37995 9.79779 1.96965 10.2789C1.55935 10.76 1.33337 11.3713 1.33203 12.0036V16.0903C1.33203 16.4439 1.47251 16.783 1.72256 17.0331C1.9726 17.2831 2.31174 17.4236 2.66536 17.4236V12.0036C2.66536 11.65 2.80584 11.3109 3.05589 11.0608C3.30594 10.8108 3.64508 10.6703 3.9987 10.6703H16.4854C17.7702 10.672 19.002 11.1832 19.9105 12.0918C20.8191 13.0003 21.3303 14.2321 21.332 15.5169V16.0036H19.9987C19.7171 15.317 19.1926 14.7581 18.5253 14.4336C17.8579 14.109 17.0945 14.0416 16.3805 14.2441C15.6666 14.4465 15.0522 14.9048 14.6546 15.5313C14.257 16.1579 14.104 16.9089 14.2248 17.6411C14.3456 18.3733 14.7318 19.0354 15.3096 19.501C15.8874 19.9666 16.6165 20.2032 17.3576 20.1656C18.0987 20.128 18.8 19.8188 19.3278 19.2971C19.8555 18.7754 20.1726 18.0776 20.2187 17.3369H21.332C21.6857 17.3369 22.0248 17.1965 22.2748 16.9464C22.5249 16.6964 22.6654 16.3572 22.6654 16.0036V15.5169C22.6627 14.0782 22.1587 12.6854 21.24 11.5782C20.3214 10.4709 19.0455 9.71848 17.632 9.45028ZM7.33203 9.33695H4.6187C4.6187 9.13028 4.6787 8.91694 4.7187 8.67028C4.83388 7.93792 5.13446 7.24719 5.59187 6.66375C6.04928 6.08032 6.64832 5.62358 7.33203 5.33694V9.33695ZM8.66536 9.33695V5.05694C9.91 4.89532 11.1723 5.16849 12.2387 5.83028C13.6945 6.73706 14.951 7.93006 15.932 9.33695H8.66536ZM17.1987 18.9236C16.8691 18.9236 16.5468 18.8259 16.2727 18.6427C15.9987 18.4596 15.785 18.1993 15.6589 17.8947C15.5328 17.5902 15.4997 17.2551 15.5641 16.9318C15.6284 16.6085 15.7871 16.3115 16.0202 16.0784C16.2533 15.8453 16.5502 15.6866 16.8735 15.6223C17.1968 15.558 17.532 15.591 17.8365 15.7171C18.141 15.8433 18.4013 16.0569 18.5845 16.331C18.7676 16.6051 18.8654 16.9273 18.8654 17.2569C18.8654 17.699 18.6898 18.1229 18.3772 18.4355C18.0646 18.748 17.6407 18.9236 17.1987 18.9236Z" fill="#9094A0"/>
<path d="M9.447 15.9991C9.16543 15.3126 8.64094 14.7537 7.97358 14.4291C7.30623 14.1046 6.54275 14.0371 5.82883 14.2396C5.1149 14.4421 4.50052 14.9003 4.10291 15.5269C3.7053 16.1534 3.5523 16.9045 3.67311 17.6367C3.79392 18.3688 4.18008 19.0309 4.7579 19.4965C5.33572 19.9622 6.06475 20.1987 6.80588 20.1611C7.54701 20.1235 8.24834 19.8143 8.77606 19.2926C9.30378 18.7709 9.62093 18.0731 9.667 17.3325H13.2003V17.1658C13.1871 16.7725 13.2321 16.3794 13.3337 15.9991H9.447ZM6.667 18.9191C6.33736 18.9191 6.01513 18.8214 5.74105 18.6383C5.46696 18.4551 5.25334 18.1948 5.1272 17.8903C5.00105 17.5857 4.96804 17.2506 5.03235 16.9273C5.09666 16.604 5.2554 16.3071 5.48848 16.074C5.72157 15.8409 6.01854 15.6821 6.34185 15.6178C6.66515 15.5535 7.00026 15.5865 7.3048 15.7127C7.60935 15.8388 7.86964 16.0524 8.05278 16.3265C8.23591 16.6006 8.33366 16.9228 8.33366 17.2525C8.33366 17.6945 8.15807 18.1184 7.84551 18.431C7.53295 18.7436 7.10902 18.9191 6.667 18.9191Z" fill="#9094A0"/>
</g>
<defs>
<clipPath id="clip0_1049_9955">
<rect width="24" height="24" fill="white"/>
</clipPath>
</defs>
</svg>
