<svg width="86" height="23" viewBox="0 0 86 23" fill="none" xmlns="http://www.w3.org/2000/svg">
<rect x="0.75" width="85" height="23" rx="8" fill="#32936F" fill-opacity="0.16"/>
<path d="M20.2338 10H19.177C19.1145 9.69602 19.0051 9.42898 18.8489 9.19886C18.6955 8.96875 18.508 8.77557 18.2864 8.61932C18.0676 8.46023 17.8248 8.34091 17.5577 8.26136C17.2907 8.18182 17.0123 8.14205 16.7225 8.14205C16.1941 8.14205 15.7154 8.27557 15.2864 8.54261C14.8603 8.80966 14.5208 9.20312 14.2679 9.72301C14.0179 10.2429 13.8929 10.8807 13.8929 11.6364C13.8929 12.392 14.0179 13.0298 14.2679 13.5497C14.5208 14.0696 14.8603 14.4631 15.2864 14.7301C15.7154 14.9972 16.1941 15.1307 16.7225 15.1307C17.0123 15.1307 17.2907 15.0909 17.5577 15.0114C17.8248 14.9318 18.0676 14.8139 18.2864 14.6577C18.508 14.4986 18.6955 14.304 18.8489 14.0739C19.0051 13.8409 19.1145 13.5739 19.177 13.2727H20.2338C20.1543 13.7187 20.0094 14.1179 19.7992 14.4702C19.589 14.8224 19.3276 15.1222 19.0151 15.3693C18.7026 15.6136 18.3517 15.7997 17.9625 15.9276C17.5762 16.0554 17.1628 16.1193 16.7225 16.1193C15.9782 16.1193 15.3162 15.9375 14.7367 15.5739C14.1571 15.2102 13.7012 14.6932 13.3688 14.0227C13.0364 13.3523 12.8702 12.5568 12.8702 11.6364C12.8702 10.7159 13.0364 9.92045 13.3688 9.25C13.7012 8.57955 14.1571 8.0625 14.7367 7.69886C15.3162 7.33523 15.9782 7.15341 16.7225 7.15341C17.1628 7.15341 17.5762 7.21733 17.9625 7.34517C18.3517 7.47301 18.7026 7.66051 19.0151 7.90767C19.3276 8.15199 19.589 8.45028 19.7992 8.80256C20.0094 9.15199 20.1543 9.55114 20.2338 10ZM24.4643 16.1364C23.8734 16.1364 23.3549 15.9957 22.9089 15.7145C22.4657 15.4332 22.1191 15.0398 21.8691 14.5341C21.622 14.0284 21.4984 13.4375 21.4984 12.7614C21.4984 12.0795 21.622 11.4844 21.8691 10.9759C22.1191 10.4673 22.4657 10.0724 22.9089 9.79119C23.3549 9.50994 23.8734 9.36932 24.4643 9.36932C25.0552 9.36932 25.5723 9.50994 26.0154 9.79119C26.4615 10.0724 26.8081 10.4673 27.0552 10.9759C27.3052 11.4844 27.4302 12.0795 27.4302 12.7614C27.4302 13.4375 27.3052 14.0284 27.0552 14.5341C26.8081 15.0398 26.4615 15.4332 26.0154 15.7145C25.5723 15.9957 25.0552 16.1364 24.4643 16.1364ZM24.4643 15.233C24.9132 15.233 25.2825 15.1179 25.5723 14.8878C25.862 14.6577 26.0765 14.3551 26.2157 13.9801C26.3549 13.6051 26.4245 13.1989 26.4245 12.7614C26.4245 12.3239 26.3549 11.9162 26.2157 11.5384C26.0765 11.1605 25.862 10.8551 25.5723 10.6222C25.2825 10.3892 24.9132 10.2727 24.4643 10.2727C24.0154 10.2727 23.6461 10.3892 23.3564 10.6222C23.0666 10.8551 22.8521 11.1605 22.7129 11.5384C22.5737 11.9162 22.5041 12.3239 22.5041 12.7614C22.5041 13.1989 22.5737 13.6051 22.7129 13.9801C22.8521 14.3551 23.0666 14.6577 23.3564 14.8878C23.6461 15.1179 24.0154 15.233 24.4643 15.233ZM28.9654 16V9.45455H29.937V10.4773H30.0222C30.1586 10.1278 30.3787 9.85653 30.6827 9.66335C30.9867 9.46733 31.3517 9.36932 31.7779 9.36932C32.2097 9.36932 32.5691 9.46733 32.856 9.66335C33.1458 9.85653 33.3716 10.1278 33.5336 10.4773H33.6017C33.7694 10.1392 34.0208 9.87074 34.356 9.67188C34.6912 9.47017 35.0932 9.36932 35.562 9.36932C36.1472 9.36932 36.6259 9.55256 36.998 9.91903C37.3702 10.2827 37.5563 10.8494 37.5563 11.6193V16H36.5506V11.6193C36.5506 11.1364 36.4185 10.7912 36.1543 10.5838C35.8901 10.3764 35.579 10.2727 35.2211 10.2727C34.7608 10.2727 34.4043 10.4119 34.1515 10.6903C33.8986 10.9659 33.7722 11.3153 33.7722 11.7386V16H32.7495V11.517C32.7495 11.1449 32.6287 10.8452 32.3873 10.6179C32.1458 10.3878 31.8347 10.2727 31.454 10.2727C31.1926 10.2727 30.9483 10.3423 30.7211 10.4815C30.4966 10.6207 30.3148 10.8139 30.1756 11.0611C30.0392 11.3054 29.9711 11.5881 29.9711 11.9091V16H28.9654ZM39.3951 18.4545V9.45455H40.3667V10.4943H40.486C40.5598 10.3807 40.6621 10.2358 40.7928 10.0597C40.9263 9.88068 41.1167 9.72159 41.3638 9.58239C41.6138 9.44034 41.9519 9.36932 42.378 9.36932C42.9292 9.36932 43.415 9.5071 43.8354 9.78267C44.2559 10.0582 44.584 10.4489 44.8198 10.9545C45.0556 11.4602 45.1735 12.0568 45.1735 12.7443C45.1735 13.4375 45.0556 14.0384 44.8198 14.5469C44.584 15.0526 44.2573 15.4446 43.8397 15.723C43.4221 15.9986 42.9405 16.1364 42.3951 16.1364C41.9746 16.1364 41.638 16.0668 41.3851 15.9276C41.1323 15.7855 40.9377 15.625 40.8013 15.446C40.665 15.2642 40.5598 15.1136 40.486 14.9943H40.4007V18.4545H39.3951ZM40.3837 12.7273C40.3837 13.2216 40.4561 13.6577 40.601 14.0355C40.7459 14.4105 40.9576 14.7045 41.236 14.9176C41.5144 15.1278 41.8553 15.233 42.2587 15.233C42.6792 15.233 43.03 15.1222 43.3113 14.9006C43.5953 14.6761 43.8084 14.375 43.9505 13.9972C44.0953 13.6165 44.1678 13.1932 44.1678 12.7273C44.1678 12.267 44.0968 11.8523 43.9547 11.483C43.8155 11.1108 43.6039 10.8168 43.3198 10.6009C43.0385 10.3821 42.6848 10.2727 42.2587 10.2727C41.8496 10.2727 41.5059 10.3764 41.2275 10.5838C40.949 10.7884 40.7388 11.0753 40.5968 11.4446C40.4547 11.8111 40.3837 12.2386 40.3837 12.7273ZM47.7132 7.27273V16H46.7076V7.27273H47.7132ZM52.2995 16.1364C51.6689 16.1364 51.1248 15.9972 50.6674 15.7188C50.2129 15.4375 49.862 15.0455 49.6149 14.5426C49.3706 14.0369 49.2484 13.4489 49.2484 12.7784C49.2484 12.108 49.3706 11.517 49.6149 11.0057C49.862 10.4915 50.2058 10.0909 50.6461 9.80398C51.0893 9.5142 51.6064 9.36932 52.1973 9.36932C52.5382 9.36932 52.8748 9.42614 53.2072 9.53977C53.5396 9.65341 53.8422 9.83807 54.1149 10.0938C54.3876 10.3466 54.6049 10.6818 54.7669 11.0994C54.9288 11.517 55.0098 12.0312 55.0098 12.642V13.0682H49.9643V12.1989H53.987C53.987 11.8295 53.9132 11.5 53.7654 11.2102C53.6206 10.9205 53.4132 10.6918 53.1433 10.5241C52.8762 10.3565 52.5609 10.2727 52.1973 10.2727C51.7967 10.2727 51.4501 10.3722 51.1575 10.571C50.8677 10.767 50.6447 11.0227 50.4885 11.3381C50.3322 11.6534 50.2541 11.9915 50.2541 12.3523V12.9318C50.2541 13.4261 50.3393 13.8452 50.5098 14.1889C50.6831 14.5298 50.9231 14.7898 51.2299 14.9688C51.5368 15.1449 51.8933 15.233 52.2995 15.233C52.5637 15.233 52.8024 15.196 53.0154 15.1222C53.2314 15.0455 53.4174 14.9318 53.5737 14.7812C53.7299 14.6278 53.8507 14.4375 53.9359 14.2102L54.9075 14.483C54.8052 14.8125 54.6333 15.1023 54.3919 15.3523C54.1504 15.5994 53.8521 15.7926 53.497 15.9318C53.1419 16.0682 52.7427 16.1364 52.2995 16.1364ZM59.3862 9.45455V10.3068H55.9941V9.45455H59.3862ZM56.9828 7.88636H57.9885V14.125C57.9885 14.4091 58.0297 14.6222 58.112 14.7642C58.1973 14.9034 58.3052 14.9972 58.4359 15.0455C58.5694 15.0909 58.71 15.1136 58.8578 15.1136C58.9686 15.1136 59.0595 15.108 59.1305 15.0966C59.2015 15.0824 59.2583 15.071 59.301 15.0625L59.5055 15.9659C59.4373 15.9915 59.3422 16.017 59.22 16.0426C59.0978 16.071 58.943 16.0852 58.7555 16.0852C58.4714 16.0852 58.193 16.0241 57.9203 15.902C57.6504 15.7798 57.426 15.5938 57.247 15.3438C57.0708 15.0938 56.9828 14.7784 56.9828 14.3977V7.88636ZM63.573 16.1364C62.9423 16.1364 62.3983 15.9972 61.9409 15.7188C61.4863 15.4375 61.1355 15.0455 60.8883 14.5426C60.644 14.0369 60.5218 13.4489 60.5218 12.7784C60.5218 12.108 60.644 11.517 60.8883 11.0057C61.1355 10.4915 61.4792 10.0909 61.9196 9.80398C62.3627 9.5142 62.8798 9.36932 63.4707 9.36932C63.8116 9.36932 64.1483 9.42614 64.4806 9.53977C64.813 9.65341 65.1156 9.83807 65.3883 10.0938C65.661 10.3466 65.8784 10.6818 66.0403 11.0994C66.2022 11.517 66.2832 12.0312 66.2832 12.642V13.0682H61.2377V12.1989H65.2605C65.2605 11.8295 65.1866 11.5 65.0389 11.2102C64.894 10.9205 64.6866 10.6918 64.4167 10.5241C64.1497 10.3565 63.8343 10.2727 63.4707 10.2727C63.0701 10.2727 62.7235 10.3722 62.4309 10.571C62.1412 10.767 61.9181 11.0227 61.7619 11.3381C61.6056 11.6534 61.5275 11.9915 61.5275 12.3523V12.9318C61.5275 13.4261 61.6127 13.8452 61.7832 14.1889C61.9565 14.5298 62.1966 14.7898 62.5034 14.9688C62.8102 15.1449 63.1667 15.233 63.573 15.233C63.8372 15.233 64.0758 15.196 64.2889 15.1222C64.5048 15.0455 64.6909 14.9318 64.8471 14.7812C65.0034 14.6278 65.1241 14.4375 65.2093 14.2102L66.1809 14.483C66.0787 14.8125 65.9068 15.1023 65.6653 15.3523C65.4238 15.5994 65.1255 15.7926 64.7704 15.9318C64.4153 16.0682 64.0162 16.1364 63.573 16.1364ZM70.2846 16.1364C69.7392 16.1364 69.2576 15.9986 68.84 15.723C68.4224 15.4446 68.0957 15.0526 67.8599 14.5469C67.6241 14.0384 67.5062 13.4375 67.5062 12.7443C67.5062 12.0568 67.6241 11.4602 67.8599 10.9545C68.0957 10.4489 68.4238 10.0582 68.8443 9.78267C69.2647 9.5071 69.7505 9.36932 70.3017 9.36932C70.7278 9.36932 71.0645 9.44034 71.3116 9.58239C71.5616 9.72159 71.752 9.88068 71.8826 10.0597C72.0162 10.2358 72.1199 10.3807 72.1937 10.4943H72.2789V7.27273H73.2846V16H72.313V14.9943H72.1937C72.1199 15.1136 72.0147 15.2642 71.8784 15.446C71.742 15.625 71.5474 15.7855 71.2946 15.9276C71.0417 16.0668 70.7051 16.1364 70.2846 16.1364ZM70.421 15.233C70.8244 15.233 71.1653 15.1278 71.4437 14.9176C71.7221 14.7045 71.9338 14.4105 72.0787 14.0355C72.2235 13.6577 72.296 13.2216 72.296 12.7273C72.296 12.2386 72.225 11.8111 72.0829 11.4446C71.9409 11.0753 71.7306 10.7884 71.4522 10.5838C71.1738 10.3764 70.8301 10.2727 70.421 10.2727C69.9949 10.2727 69.6397 10.3821 69.3556 10.6009C69.0744 10.8168 68.8627 11.1108 68.7207 11.483C68.5815 11.8523 68.5119 12.267 68.5119 12.7273C68.5119 13.1932 68.5829 13.6165 68.725 13.9972C68.8699 14.375 69.0829 14.6761 69.3642 14.9006C69.6483 15.1222 70.0005 15.233 70.421 15.233Z" fill="#519C66"/>
</svg>
