<svg width="15" height="15" viewBox="0 0 15 15" fill="none" xmlns="http://www.w3.org/2000/svg">
<path d="M6.19444 12C6.40072 12 6.59855 11.921 6.74442 11.7803C6.89028 11.6397 6.97222 11.4489 6.97222 11.25V6.75C6.97222 6.55109 6.89028 6.36032 6.74442 6.21967C6.59855 6.07902 6.40072 6 6.19444 6C5.98816 6 5.79033 6.07902 5.64447 6.21967C5.49861 6.36032 5.41667 6.55109 5.41667 6.75V11.25C5.41667 11.4489 5.49861 11.6397 5.64447 11.7803C5.79033 11.921 5.98816 12 6.19444 12ZM13.9722 3H10.8611V2.25C10.8611 1.65326 10.6153 1.08097 10.1777 0.65901C9.74011 0.237053 9.14662 0 8.52778 0H6.97222C6.35338 0 5.75989 0.237053 5.32231 0.65901C4.88472 1.08097 4.63889 1.65326 4.63889 2.25V3H1.52778C1.3215 3 1.12367 3.07902 0.977806 3.21967C0.831944 3.36032 0.75 3.55109 0.75 3.75C0.75 3.94891 0.831944 4.13968 0.977806 4.28033C1.12367 4.42098 1.3215 4.5 1.52778 4.5H2.30556V12.75C2.30556 13.3467 2.55139 13.919 2.98897 14.341C3.42656 14.7629 4.02005 15 4.63889 15H10.8611C11.4799 15 12.0734 14.7629 12.511 14.341C12.9486 13.919 13.1944 13.3467 13.1944 12.75V4.5H13.9722C14.1785 4.5 14.3763 4.42098 14.5222 4.28033C14.6681 4.13968 14.75 3.94891 14.75 3.75C14.75 3.55109 14.6681 3.36032 14.5222 3.21967C14.3763 3.07902 14.1785 3 13.9722 3ZM6.19444 2.25C6.19444 2.05109 6.27639 1.86032 6.42225 1.71967C6.56811 1.57902 6.76594 1.5 6.97222 1.5H8.52778C8.73406 1.5 8.93189 1.57902 9.07775 1.71967C9.22361 1.86032 9.30556 2.05109 9.30556 2.25V3H6.19444V2.25ZM11.6389 12.75C11.6389 12.9489 11.5569 13.1397 11.4111 13.2803C11.2652 13.421 11.0674 13.5 10.8611 13.5H4.63889C4.43261 13.5 4.23478 13.421 4.08892 13.2803C3.94306 13.1397 3.86111 12.9489 3.86111 12.75V4.5H11.6389V12.75ZM9.30556 12C9.51184 12 9.70967 11.921 9.85553 11.7803C10.0014 11.6397 10.0833 11.4489 10.0833 11.25V6.75C10.0833 6.55109 10.0014 6.36032 9.85553 6.21967C9.70967 6.07902 9.51184 6 9.30556 6C9.09928 6 8.90145 6.07902 8.75558 6.21967C8.60972 6.36032 8.52778 6.55109 8.52778 6.75V11.25C8.52778 11.4489 8.60972 11.6397 8.75558 11.7803C8.90145 11.921 9.09928 12 9.30556 12Z" fill="#EF3636"/>
</svg>
