<svg width="32" height="32" viewBox="0 0 32 32" fill="none" xmlns="http://www.w3.org/2000/svg">
<path fill-rule="evenodd" clip-rule="evenodd" d="M10.001 6.33333C10.001 6.042 13.0117 4 16.001 4C18.9903 4 22.001 6.042 22.001 6.33333C22.001 7.37333 21.8903 7.98933 21.797 8.32467C21.735 8.54467 21.529 8.66667 21.3003 8.66667H10.7017C10.473 8.66667 10.267 8.54467 10.205 8.32467C10.1117 7.98933 10.001 7.37333 10.001 6.33333ZM15.001 6C14.8242 6 14.6546 6.07024 14.5296 6.19526C14.4046 6.32029 14.3343 6.48986 14.3343 6.66667C14.3343 6.84348 14.4046 7.01305 14.5296 7.13807C14.6546 7.2631 14.8242 7.33333 15.001 7.33333H17.001C17.1778 7.33333 17.3474 7.2631 17.4724 7.13807C17.5974 7.01305 17.6677 6.84348 17.6677 6.66667C17.6677 6.48986 17.5974 6.32029 17.4724 6.19526C17.3474 6.07024 17.1778 6 17.001 6H15.001ZM10.693 12.812C8.473 12.1253 9.033 10.8987 9.87967 10H22.3077C22.985 10.8653 23.3483 12.0327 21.301 12.7313C21.3847 13.474 21.3113 14.226 21.0857 14.9385C20.8601 15.651 20.4872 16.3082 19.9913 16.8673C19.4954 17.4265 18.8875 17.8751 18.2071 18.1843C17.5266 18.4934 16.7888 18.656 16.0414 18.6617C15.2941 18.6673 14.5539 18.5158 13.8688 18.217C13.1838 17.9182 12.5692 17.4787 12.0649 16.9271C11.5606 16.3755 11.1779 15.724 10.9416 15.015C10.7052 14.306 10.6205 13.5559 10.693 12.812ZM15.8197 13.3327C17.581 13.3327 18.9463 13.2393 19.993 13.0767C20.0274 13.6202 19.9504 14.1651 19.7668 14.6778C19.5832 15.1906 19.2969 15.6604 18.9253 16.0586C18.5537 16.4567 18.1047 16.7748 17.6058 16.9933C17.1069 17.2118 16.5687 17.3262 16.024 17.3293C15.4794 17.3324 14.9399 17.2243 14.4385 17.0116C13.9372 16.7988 13.4845 16.4859 13.1084 16.0921C12.7322 15.6982 12.4404 15.2317 12.2509 14.7211C12.0614 14.2105 11.9782 13.6666 12.0063 13.1227C12.9817 13.2573 14.2317 13.3327 15.8197 13.3327ZM21.6123 23.0667C21.0093 22.1259 20.1793 21.3519 19.1987 20.816C18.2181 20.2801 17.1185 19.9995 16.001 20C14.8831 19.9993 13.7829 20.2799 12.802 20.8161C11.821 21.3522 10.9907 22.1267 10.3877 23.068C10.1639 22.7233 9.82012 22.4739 9.423 22.368L8.135 22.0233C7.70809 21.9089 7.2532 21.9687 6.87039 22.1896C6.48757 22.4105 6.20818 22.7744 6.09367 23.2013L5.57633 25.1333C5.51968 25.3448 5.50522 25.5653 5.53379 25.7823C5.56236 25.9993 5.6334 26.2086 5.74285 26.3981C5.85231 26.5877 5.99802 26.7538 6.17169 26.8871C6.34535 27.0203 6.54356 27.118 6.755 27.1747L8.04233 27.52C8.25887 27.5783 8.48497 27.5922 8.70702 27.5608C8.92906 27.5294 9.14246 27.4534 9.33433 27.3373C9.33486 27.5141 9.40561 27.6835 9.53101 27.8082C9.65641 27.9328 9.82619 28.0025 10.003 28.002C10.1798 28.0015 10.3492 27.9307 10.4738 27.8053C10.5985 27.6799 10.6682 27.5101 10.6677 27.3333V26.6667C10.6677 26.4127 10.6857 26.1627 10.7197 25.918L14.189 26.848C14.35 27.1927 14.6061 27.4843 14.927 27.6886C15.248 27.8929 15.6205 28.0014 16.001 28.0014C16.3815 28.0014 16.754 27.8929 17.075 27.6886C17.3959 27.4843 17.652 27.1927 17.813 26.848L21.2823 25.918C21.3163 26.1627 21.3343 26.4127 21.3343 26.6667V27.3333C21.3334 27.5101 21.4028 27.6801 21.5272 27.8057C21.6516 27.9314 21.8209 28.0025 21.9977 28.0033C22.1745 28.0042 22.3444 27.9348 22.47 27.8104C22.5957 27.686 22.6668 27.5168 22.6677 27.34C23.041 27.564 23.5023 27.642 23.9563 27.52L25.2443 27.1753C25.4558 27.1187 25.654 27.021 25.8276 26.8877C26.0013 26.7545 26.147 26.5884 26.2565 26.3988C26.3659 26.2092 26.437 26 26.4655 25.783C26.4941 25.5659 26.4797 25.3454 26.423 25.134L25.905 23.202C25.7905 22.7751 25.5111 22.4112 25.1283 22.1903C24.7455 21.9694 24.2906 21.9095 23.8637 22.024L22.5757 22.3687C22.1795 22.4742 21.8363 22.7232 21.6123 23.0667ZM11.0697 24.6307C11.4299 23.7598 12.0142 22.9999 12.7632 22.428C13.5123 21.8561 14.3994 21.4927 15.3343 21.3747V24.114C15.0356 24.22 14.7662 24.3953 14.5483 24.6256C14.3304 24.8558 14.1703 25.1345 14.081 25.4387L11.0697 24.6307ZM20.9323 24.6307C20.5721 23.7599 19.9877 22.9999 19.2387 22.4281C18.4897 21.8562 17.6026 21.4928 16.6677 21.3747V24.114C17.2703 24.3273 17.741 24.8207 17.921 25.4387L20.9323 24.6307ZM16.001 26.6667C16.1778 26.6667 16.3474 26.5964 16.4724 26.4714C16.5974 26.3464 16.6677 26.1768 16.6677 26C16.6677 25.8232 16.5974 25.6536 16.4724 25.5286C16.3474 25.4036 16.1778 25.3333 16.001 25.3333C15.8242 25.3333 15.6546 25.4036 15.5296 25.5286C15.4046 25.6536 15.3343 25.8232 15.3343 26C15.3343 26.1768 15.4046 26.3464 15.5296 26.4714C15.6546 26.5964 15.8242 26.6667 16.001 26.6667Z" fill="black"/>
</svg>
