<svg width="16" height="15" viewBox="0 0 16 15" fill="none" xmlns="http://www.w3.org/2000/svg">
<path d="M12.8739 13.9989H1.87491V2.99991H8.48429L9.4842 2H1.87491C1.60972 2 1.35538 2.10535 1.16787 2.29287C0.980347 2.48038 0.875 2.73472 0.875 2.99991V13.9989C0.875 14.2641 0.980347 14.5184 1.16787 14.7059C1.35538 14.8934 1.60972 14.9988 1.87491 14.9988H12.8739C13.1391 14.9988 13.3934 14.8934 13.5809 14.7059C13.7684 14.5184 13.8738 14.2641 13.8738 13.9989V6.49958L12.8739 7.49949V13.9989Z" fill="#1490D2"/>
<path d="M15.6407 1.92138L13.9559 0.236537C13.8811 0.161559 13.7923 0.102072 13.6945 0.0614823C13.5967 0.0208931 13.4918 0 13.3859 0C13.2801 0 13.1752 0.0208931 13.0774 0.0614823C12.9796 0.102072 12.8908 0.161559 12.816 0.236537L5.96163 7.1309L5.40669 9.53567C5.38304 9.65224 5.38553 9.7726 5.41396 9.88809C5.4424 10.0036 5.49608 10.1113 5.57113 10.2036C5.64619 10.2959 5.74077 10.3704 5.84805 10.4217C5.95534 10.4731 6.07267 10.5 6.19161 10.5006C6.25309 10.5074 6.31512 10.5074 6.3766 10.5006L8.80137 9.96563L15.6407 3.06127C15.7157 2.9865 15.7752 2.89767 15.8158 2.79987C15.8564 2.70207 15.8773 2.59722 15.8773 2.49133C15.8773 2.38544 15.8564 2.28059 15.8158 2.18279C15.7752 2.08498 15.7157 1.99615 15.6407 1.92138ZM8.28142 9.04072L6.45159 9.44568L6.87655 7.63085L12.0361 2.43633L13.4459 3.8462L8.28142 9.04072ZM14.0109 3.28125L12.601 1.87138L13.3759 1.08146L14.7958 2.50133L14.0109 3.28125Z" fill="#1490D2"/>
</svg>
