<svg width="25" height="24" viewBox="0 0 25 24" fill="none" xmlns="http://www.w3.org/2000/svg">
<path fill-rule="evenodd" clip-rule="evenodd" d="M6.02725 5.15225C6.49588 4.68362 7.25568 4.68362 7.72431 5.15225L12.8758 10.3037L18.0273 5.15225C18.4959 4.68362 19.2557 4.68362 19.7243 5.15225C20.1929 5.62088 20.1929 6.38068 19.7243 6.84931L14.5728 12.0008L19.7243 17.1523C20.1929 17.6209 20.1929 18.3807 19.7243 18.8493C19.2557 19.3179 18.4959 19.3179 18.0273 18.8493L12.8758 13.6978L7.72431 18.8493C7.25568 19.3179 6.49588 19.3179 6.02725 18.8493C5.55862 18.3807 5.55862 17.6209 6.02725 17.1523L11.1787 12.0008L6.02725 6.84931C5.55862 6.38068 5.55862 5.62088 6.02725 5.15225Z" fill="#EF3636"/>
</svg>
