<svg width="24" height="24" viewBox="0 0 24 24" fill="none" xmlns="http://www.w3.org/2000/svg">
<g clip-path="url(#clip0_1049_12637)">
<path d="M10 11.3359H12V12.6693H10V11.3359Z" fill="white"/>
<path d="M17.6359 9.45028C16.4536 7.51548 14.8406 5.87969 12.9226 4.67028C12.0365 4.10871 11.0265 3.77257 9.9806 3.69123C8.93473 3.60988 7.88484 3.7858 6.9226 4.20361C6.08094 4.60061 5.34857 5.19653 4.78872 5.93989C4.22888 6.68325 3.8584 7.55171 3.70927 8.47028C3.65594 8.78361 3.61594 9.08361 3.57594 9.37695C2.95177 9.47811 2.38386 9.79779 1.97356 10.2789C1.56326 10.76 1.33728 11.3713 1.33594 12.0036V16.0903C1.33594 16.4439 1.47641 16.783 1.72646 17.0331C1.97651 17.2831 2.31565 17.4236 2.66927 17.4236V12.0036C2.66927 11.65 2.80975 11.3109 3.0598 11.0608C3.30984 10.8108 3.64898 10.6703 4.0026 10.6703H16.4893C17.7741 10.672 19.0059 11.1832 19.9144 12.0918C20.823 13.0003 21.3342 14.2321 21.3359 15.5169V16.0036H20.0026C19.721 15.317 19.1965 14.7581 18.5292 14.4336C17.8618 14.109 17.0984 14.0416 16.3844 14.2441C15.6705 14.4465 15.0561 14.9048 14.6585 15.5313C14.2609 16.1579 14.1079 16.9089 14.2287 17.6411C14.3495 18.3733 14.7357 19.0354 15.3135 19.501C15.8913 19.9666 16.6204 20.2032 17.3615 20.1656C18.1026 20.128 18.804 19.8188 19.3317 19.2971C19.8594 18.7754 20.1765 18.0776 20.2226 17.3369H21.3359C21.6896 17.3369 22.0287 17.1965 22.2787 16.9464C22.5288 16.6964 22.6693 16.3572 22.6693 16.0036V15.5169C22.6666 14.0782 22.1626 12.6854 21.2439 11.5782C20.3253 10.4709 19.0494 9.71848 17.6359 9.45028ZM7.33594 9.33695H4.6226C4.6226 9.13028 4.6826 8.91694 4.7226 8.67028C4.83779 7.93792 5.13837 7.24719 5.59578 6.66375C6.05319 6.08032 6.65223 5.62358 7.33594 5.33694V9.33695ZM8.66927 9.33695V5.05694C9.91391 4.89532 11.1762 5.16849 12.2426 5.83028C13.6984 6.73706 14.9549 7.93006 15.9359 9.33695H8.66927ZM17.2026 18.9236C16.873 18.9236 16.5507 18.8259 16.2767 18.6427C16.0026 18.4596 15.789 18.1993 15.6628 17.8947C15.5367 17.5902 15.5037 17.2551 15.568 16.9318C15.6323 16.6085 15.791 16.3115 16.0241 16.0784C16.2572 15.8453 16.5542 15.6866 16.8775 15.6223C17.2008 15.558 17.5359 15.591 17.8404 15.7171C18.145 15.8433 18.4053 16.0569 18.5884 16.331C18.7715 16.6051 18.8693 16.9273 18.8693 17.2569C18.8693 17.699 18.6937 18.1229 18.3811 18.4355C18.0686 18.748 17.6446 18.9236 17.2026 18.9236Z" fill="white"/>
<path d="M9.447 15.9991C9.16543 15.3126 8.64094 14.7537 7.97358 14.4291C7.30623 14.1046 6.54275 14.0371 5.82883 14.2396C5.1149 14.4421 4.50052 14.9003 4.10291 15.5269C3.7053 16.1534 3.5523 16.9045 3.67311 17.6367C3.79392 18.3688 4.18008 19.0309 4.7579 19.4965C5.33572 19.9622 6.06475 20.1987 6.80588 20.1611C7.54701 20.1235 8.24834 19.8143 8.77606 19.2926C9.30378 18.7709 9.62093 18.0731 9.667 17.3325H13.2003V17.1658C13.1871 16.7725 13.2321 16.3794 13.3337 15.9991H9.447ZM6.667 18.9191C6.33736 18.9191 6.01513 18.8214 5.74105 18.6383C5.46696 18.4551 5.25334 18.1948 5.1272 17.8903C5.00105 17.5857 4.96804 17.2506 5.03235 16.9273C5.09666 16.604 5.2554 16.3071 5.48848 16.074C5.72157 15.8409 6.01854 15.6821 6.34185 15.6178C6.66515 15.5535 7.00026 15.5865 7.3048 15.7127C7.60935 15.8388 7.86964 16.0524 8.05278 16.3265C8.23591 16.6006 8.33366 16.9228 8.33366 17.2525C8.33366 17.6945 8.15807 18.1184 7.84551 18.431C7.53295 18.7436 7.10902 18.9191 6.667 18.9191Z" fill="white"/>
</g>
<defs>
<clipPath id="clip0_1049_12637">
<rect width="24" height="24" fill="white"/>
</clipPath>
</defs>
</svg>
