<svg width="24" height="24" viewBox="0 0 24 24" fill="none" xmlns="http://www.w3.org/2000/svg">
<path d="M3 14C3 17.771 3 19.657 4.10689 20.828C5.21283 22 6.99406 22 10.5556 22L12.4444 22C16.0059 22 17.7872 22 18.8931 20.828C20 19.657 20 17.771 20 14L20 10C20 6.229 20 4.343 18.8931 3.172C17.7872 2 16.0059 2 12.4444 2L10.5556 2C6.99405 2 5.21283 2 4.10689 3.172C3 4.343 3 6.229 3 10L3 14Z" stroke="white" stroke-width="2"/>
<path d="M7.71094 12L15.2665 12M7.71094 16L15.2665 16M7.71094 8L12.4332 8" stroke="white" stroke-width="2" stroke-linecap="round"/>
</svg>
