<svg width="24" height="24" viewBox="0 0 24 24" fill="none" xmlns="http://www.w3.org/2000/svg">
<path fill-rule="evenodd" clip-rule="evenodd" d="M6.5 15C6.95218 15 7.59107 15.0625 8.25619 15.1536C8.56692 15.1962 8.80385 15.4331 8.8464 15.7438C8.93749 16.4089 9 17.0478 9 17.5C9 17.9522 8.93749 18.5911 8.8464 19.2562C8.80385 19.5669 8.56692 19.8039 8.25619 19.8464C7.59107 19.9375 6.95218 20 6.5 20C6.04782 20 5.40893 19.9375 4.74381 19.8464C4.43308 19.8039 4.19615 19.5669 4.15359 19.2562C4.0625 18.5911 4 17.9522 4 17.5C4 17.0478 4.0625 16.4089 4.15359 15.7438C4.19615 15.4331 4.43308 15.1962 4.74381 15.1536C5.40893 15.0625 6.04782 15 6.5 15ZM8.52756 13.1721C9.72747 13.3364 10.6636 14.2725 10.8279 15.4724C10.9222 16.1606 11 16.9082 11 17.5C11 18.0918 10.9222 18.8394 10.8279 19.5276C10.6636 20.7275 9.72747 21.6636 8.52756 21.8279C7.83935 21.9222 7.09184 22 6.5 22C5.90816 22 5.16065 21.9222 4.47243 21.8279C3.27253 21.6636 2.33642 20.7275 2.17209 19.5276C2.07784 18.8394 2 18.0918 2 17.5C2 16.9082 2.07784 16.1606 2.17209 15.4724C2.33642 14.2725 3.27253 13.3364 4.47243 13.1721C5.16065 13.0778 5.90816 13 6.5 13C7.09184 13 7.83935 13.0778 8.52756 13.1721Z" fill="white"/>
<path fill-rule="evenodd" clip-rule="evenodd" d="M17.5 15C17.9522 15 18.5911 15.0625 19.2562 15.1536C19.5669 15.1962 19.8038 15.4331 19.8464 15.7438C19.9375 16.4089 20 17.0478 20 17.5C20 17.9522 19.9375 18.5911 19.8464 19.2562C19.8038 19.5669 19.5669 19.8039 19.2562 19.8464C18.5911 19.9375 17.9522 20 17.5 20C17.0478 20 16.4089 19.9375 15.7438 19.8464C15.4331 19.8039 15.1961 19.5669 15.1536 19.2562C15.0625 18.5911 15 17.9522 15 17.5C15 17.0478 15.0625 16.4089 15.1536 15.7438C15.1961 15.4331 15.4331 15.1962 15.7438 15.1536C16.4089 15.0625 17.0478 15 17.5 15ZM19.5276 13.1721C20.7275 13.3364 21.6636 14.2725 21.8279 15.4724C21.9222 16.1606 22 16.9082 22 17.5C22 18.0918 21.9222 18.8394 21.8279 19.5276C21.6636 20.7275 20.7275 21.6636 19.5276 21.8279C18.8394 21.9222 18.0918 22 17.5 22C16.9082 22 16.1606 21.9222 15.4724 21.8279C14.2725 21.6636 13.3364 20.7275 13.1721 19.5276C13.0778 18.8394 13 18.0918 13 17.5C13 16.9082 13.0778 16.1606 13.1721 15.4724C13.3364 14.2725 14.2725 13.3364 15.4724 13.1721C16.1606 13.0778 16.9082 13 17.5 13C18.0918 13 18.8394 13.0778 19.5276 13.1721Z" fill="white"/>
<path fill-rule="evenodd" clip-rule="evenodd" d="M6.5 4C6.95218 4 7.59107 4.06251 8.25619 4.1536C8.56692 4.19615 8.80385 4.43308 8.8464 4.74381C8.93749 5.40893 9 6.04782 9 6.5C9 6.95218 8.93749 7.59107 8.8464 8.25619C8.80385 8.56692 8.56692 8.80385 8.25619 8.84641C7.59107 8.9375 6.95218 9 6.5 9C6.04782 9 5.40893 8.9375 4.74381 8.84641C4.43308 8.80385 4.19615 8.56692 4.15359 8.25619C4.0625 7.59107 4 6.95218 4 6.5C4 6.04782 4.0625 5.40893 4.15359 4.74381C4.19615 4.43308 4.43308 4.19615 4.74381 4.1536C5.40893 4.06251 6.04782 4 6.5 4ZM8.52756 2.17209C9.72747 2.33642 10.6636 3.27253 10.8279 4.47244C10.9222 5.16065 11 5.90816 11 6.5C11 7.09184 10.9222 7.83935 10.8279 8.52757C10.6636 9.72747 9.72747 10.6636 8.52756 10.8279C7.83935 10.9222 7.09184 11 6.5 11C5.90816 11 5.16065 10.9222 4.47243 10.8279C3.27253 10.6636 2.33642 9.72747 2.17209 8.52757C2.07784 7.83935 2 7.09184 2 6.5C2 5.90816 2.07784 5.16065 2.17209 4.47244C2.33642 3.27253 3.27253 2.33642 4.47243 2.17209C5.16065 2.07784 5.90816 2 6.5 2C7.09184 2 7.83935 2.07784 8.52756 2.17209Z" fill="white"/>
<path fill-rule="evenodd" clip-rule="evenodd" d="M17.5 4C17.9522 4 18.5911 4.06251 19.2562 4.1536C19.5669 4.19615 19.8038 4.43308 19.8464 4.74381C19.9375 5.40893 20 6.04782 20 6.5C20 6.95218 19.9375 7.59107 19.8464 8.25619C19.8038 8.56692 19.5669 8.80385 19.2562 8.84641C18.5911 8.9375 17.9522 9 17.5 9C17.0478 9 16.4089 8.9375 15.7438 8.84641C15.4331 8.80385 15.1961 8.56692 15.1536 8.25619C15.0625 7.59107 15 6.95218 15 6.5C15 6.04782 15.0625 5.40893 15.1536 4.74381C15.1961 4.43308 15.4331 4.19615 15.7438 4.1536C16.4089 4.06251 17.0478 4 17.5 4ZM19.5276 2.17209C20.7275 2.33642 21.6636 3.27253 21.8279 4.47244C21.9222 5.16065 22 5.90816 22 6.5C22 7.09184 21.9222 7.83935 21.8279 8.52757C21.6636 9.72747 20.7275 10.6636 19.5276 10.8279C18.8394 10.9222 18.0918 11 17.5 11C16.9082 11 16.1606 10.9222 15.4724 10.8279C14.2725 10.6636 13.3364 9.72747 13.1721 8.52757C13.0778 7.83935 13 7.09184 13 6.5C13 5.90816 13.0778 5.16065 13.1721 4.47244C13.3364 3.27253 14.2725 2.33642 15.4724 2.17209C16.1606 2.07784 16.9082 2 17.5 2C18.0918 2 18.8394 2.07784 19.5276 2.17209Z" fill="white"/>
</svg>
