<svg width="32" height="32" viewBox="0 0 32 32" fill="none" xmlns="http://www.w3.org/2000/svg">
<path fill-rule="evenodd" clip-rule="evenodd" d="M23.6667 6.66667C23.6667 7.37391 23.3857 8.05219 22.8856 8.55229C22.3855 9.05238 21.7072 9.33333 21 9.33333C20.2928 9.33333 19.6145 9.05238 19.1144 8.55229C18.6143 8.05219 18.3333 7.37391 18.3333 6.66667C18.3333 5.95942 18.6143 5.28115 19.1144 4.78105C19.6145 4.28095 20.2928 4 21 4C21.7072 4 22.3855 4.28095 22.8856 4.78105C23.3857 5.28115 23.6667 5.95942 23.6667 6.66667ZM22.3333 6.66667C22.3333 7.02029 22.1929 7.35943 21.9428 7.60948C21.6928 7.85952 21.3536 8 21 8C20.6464 8 20.3072 7.85952 20.0572 7.60948C19.8071 7.35943 19.6667 7.02029 19.6667 6.66667C19.6667 6.31304 19.8071 5.97391 20.0572 5.72386C20.3072 5.47381 20.6464 5.33333 21 5.33333C21.3536 5.33333 21.6928 5.47381 21.9428 5.72386C22.1929 5.97391 22.3333 6.31304 22.3333 6.66667ZM7.33333 18.6667C7.33333 18.313 7.47381 17.9739 7.72386 17.7239C7.97391 17.4738 8.31304 17.3333 8.66667 17.3333H10.6667C11.0203 17.3333 11.3594 17.4738 11.6095 17.7239C11.8595 17.9739 12 18.313 12 18.6667V20H14C14.3536 20 14.6928 20.1405 14.9428 20.3905C15.1929 20.6406 15.3333 20.9797 15.3333 21.3333V26.6667C15.3333 27.0203 15.1929 27.3594 14.9428 27.6095C14.6928 27.8595 14.3536 28 14 28H5.33333C4.97971 28 4.64057 27.8595 4.39052 27.6095C4.14048 27.3594 4 27.0203 4 26.6667V21.3333C4 20.9797 4.14048 20.6406 4.39052 20.3905C4.64057 20.1405 4.97971 20 5.33333 20H7.33333V18.6667ZM5.33333 26.6667V21.3333H6.66667V26.6667H5.33333ZM10.6667 18.6667V20H8.66667V18.6667H10.6667ZM11.3333 21.3333H8V26.6667H11.3333V21.3333ZM12.6667 21.3333V26.6667H14V21.3333H12.6667Z" fill="black"/>
<path d="M25.3333 14.6654C25.3333 14.3117 25.1929 13.9726 24.9428 13.7226C24.6928 13.4725 24.3536 13.332 24 13.332V15.9987C24.3536 15.9987 24.6928 15.8582 24.9428 15.6082C25.1929 15.3581 25.3333 15.019 25.3333 14.6654Z" fill="black"/>
<path fill-rule="evenodd" clip-rule="evenodd" d="M18.6654 28.0013C18.1349 28.0013 17.6262 27.7906 17.2512 27.4155C16.8761 27.0404 16.6654 26.5317 16.6654 26.0013V14.668H13.332C12.8016 14.668 12.2929 14.4573 11.9178 14.0822C11.5427 13.7071 11.332 13.1984 11.332 12.668C11.332 12.1375 11.5427 11.6288 11.9178 11.2538C12.2929 10.8787 12.8016 10.668 13.332 10.668H24.676C25.418 10.668 27.9987 11.5773 27.9987 14.382C27.9987 16.608 26.374 18 25.332 18.48V26.0013C25.332 26.5317 25.1213 27.0404 24.7462 27.4155C24.3712 27.7906 23.8625 28.0013 23.332 28.0013C22.8016 28.0013 22.2929 27.7906 21.9178 27.4155C21.5427 27.0404 21.332 26.5317 21.332 26.0013V20.668H20.6654V26.0013C20.6654 26.4686 20.5054 26.8986 20.236 27.2393C20.0491 27.477 19.8105 27.6691 19.5384 27.8011C19.2663 27.9331 18.9678 28.0016 18.6654 28.0013ZM23.9987 17.626L24.774 17.2686C25.5367 16.9173 26.6654 15.904 26.6654 14.382C26.6654 13.4526 26.262 12.89 25.7934 12.5226C25.5658 12.3455 25.3127 12.2039 25.0427 12.1026C24.9258 12.057 24.8045 12.0234 24.6807 12.0026C24.6714 12.0013 24.67 12.0013 24.6754 12.0013H13.332C13.1552 12.0013 12.9857 12.0715 12.8606 12.1966C12.7356 12.3216 12.6654 12.4912 12.6654 12.668C12.6654 12.8448 12.7356 13.0143 12.8606 13.1394C12.9857 13.2644 13.1552 13.3346 13.332 13.3346H17.9987V26.0013C17.9987 26.1781 18.0689 26.3477 18.194 26.4727C18.319 26.5977 18.4886 26.668 18.6654 26.668C18.8422 26.668 19.0117 26.5977 19.1368 26.4727C19.2618 26.3477 19.332 26.1781 19.332 26.0013V19.3346H22.6654V26.0013C22.6654 26.1781 22.7356 26.3477 22.8606 26.4727C22.9857 26.5977 23.1552 26.668 23.332 26.668C23.5088 26.668 23.6784 26.5977 23.8034 26.4727C23.9285 26.3477 23.9987 26.1781 23.9987 26.0013V17.626Z" fill="black"/>
</svg>
