<svg width="24" height="24" viewBox="0 0 24 24" fill="none" xmlns="http://www.w3.org/2000/svg">
<path d="M5.57234 7.88423C5.28584 5.99723 6.61634 4.30223 8.64884 3.68123C9.00952 3.57096 9.39868 3.60235 9.73703 3.76901C10.0754 3.93568 10.3374 4.22507 10.4698 4.57823L11.1223 6.31823C11.2274 6.59815 11.2464 6.90308 11.1769 7.19387C11.1074 7.48466 10.9526 7.74805 10.7323 7.95023L8.79134 9.72773C8.69567 9.81553 8.62437 9.92663 8.58441 10.0502C8.54446 10.1737 8.5372 10.3055 8.56334 10.4327L8.58134 10.5107L8.62784 10.7057C8.86923 11.6532 9.23703 12.5639 9.72134 13.4132C10.2489 14.3158 10.9036 15.1377 11.6653 15.8537L11.7253 15.9077C11.8222 15.9937 11.9398 16.0532 12.0665 16.0803C12.1932 16.1073 12.3247 16.1011 12.4483 16.0622L14.9578 15.2717C15.243 15.1822 15.5485 15.1799 15.835 15.2652C16.1215 15.3504 16.376 15.5193 16.5658 15.7502L17.7538 17.1917C18.2488 17.7917 18.1888 18.6737 17.6203 19.2032C16.0648 20.6537 13.9258 20.9507 12.4378 19.7552C10.6139 18.284 9.07627 16.4896 7.90184 14.4617C6.71788 12.4354 5.92853 10.2039 5.57234 7.88423ZM10.1353 10.5317L11.7433 9.05573C12.1841 8.65154 12.494 8.12484 12.6332 7.54325C12.7725 6.96166 12.7347 6.35172 12.5248 5.79173L11.8738 4.05173C11.6074 3.34144 11.0802 2.75942 10.3997 2.42417C9.71912 2.08892 8.93639 2.02564 8.21084 2.24723C5.68634 3.01973 3.65984 5.28323 4.08884 8.11073C4.38884 10.0847 5.08034 12.5957 6.60584 15.2177C7.87291 17.4043 9.53153 19.339 11.4988 20.9252C13.7308 22.7177 16.7098 22.1057 18.6448 20.3027C19.1985 19.7872 19.5346 19.0798 19.5845 18.325C19.6344 17.5701 19.3943 16.8246 18.9133 16.2407L17.7253 14.7977C17.3453 14.3365 16.8361 13.9992 16.2631 13.8292C15.6901 13.6593 15.0794 13.6643 14.5093 13.8437L12.4258 14.4992C11.8879 13.9446 11.4167 13.3289 11.0218 12.6647C10.6404 11.9933 10.3432 11.2774 10.1368 10.5332" fill="#9094A0"/>
</svg>
