<svg width="32" height="32" viewBox="0 0 32 32" fill="none" xmlns="http://www.w3.org/2000/svg">
<path d="M15.8403 19.3439H15.9103C17.4103 19.3839 18.6103 20.6039 18.6103 22.1039C18.6103 23.3839 17.7403 24.4539 16.5603 24.7739V25.8939C16.5603 26.2939 16.2403 26.6139 15.8403 26.6139C15.4403 26.6139 15.1203 26.2939 15.1203 25.8939V24.7739C14.5327 24.6159 14.0135 24.2688 13.643 23.7862C13.2725 23.3036 13.0712 22.7124 13.0703 22.1039C13.0703 21.7039 13.3903 21.3839 13.7903 21.3839C14.1903 21.3839 14.5103 21.7039 14.5103 22.1039C14.5103 22.8439 15.1003 23.4339 15.8303 23.4339C16.5603 23.4339 17.1603 22.8339 17.1603 22.1039C17.1603 21.3739 16.5603 20.7739 15.8303 20.7739H15.7603C15.0409 20.7544 14.3575 20.4552 13.8552 19.9398C13.3529 19.4244 13.0713 18.7336 13.0703 18.0139C13.0703 16.7339 13.9403 15.6639 15.1203 15.3439V14.2239C15.1203 13.8239 15.4403 13.5039 15.8403 13.5039C16.2403 13.5039 16.5603 13.8239 16.5603 14.2239V15.3439C17.7403 15.6639 18.6103 16.7339 18.6103 18.0139C18.6103 18.4139 18.2903 18.7339 17.8903 18.7339C17.4903 18.7339 17.1703 18.4139 17.1703 18.0139C17.1703 17.2839 16.5703 16.6839 15.8403 16.6839C15.1103 16.6839 14.5103 17.2839 14.5103 18.0139C14.5103 18.7439 15.1103 19.3439 15.8403 19.3439Z" fill="black"/>
<path d="M10.532 5.10019L13.318 8.36019L13.017 8.69619C7.283 9.98219 3 15.1032 3 21.2252C3 26.6072 7.368 30.9752 12.75 30.9752H18.92C24.302 30.9752 28.67 26.6082 28.67 21.2262C28.68 15.1032 24.397 9.98219 18.663 8.69619C18.6863 8.48487 18.6481 8.27132 18.553 8.08119L20.923 5.36819L21.076 5.13219C21.2547 4.74251 21.3004 4.30494 21.2061 3.88676C21.1118 3.46858 20.8827 3.09296 20.5541 2.81766C20.2256 2.54235 19.8156 2.38262 19.3874 2.36302C18.9592 2.34342 18.5364 2.46505 18.184 2.70919L17.341 1.70919C17.1519 1.49757 16.9203 1.32817 16.6614 1.21203C16.4024 1.0959 16.1219 1.03563 15.8381 1.03516C15.5543 1.03469 15.2736 1.09402 15.0143 1.2093C14.7549 1.32457 14.5228 1.4932 14.333 1.70419L13.45 2.69019C13.0985 2.44097 12.6748 2.3145 12.2442 2.33033C11.8137 2.34617 11.4003 2.50343 11.0681 2.77779C10.7359 3.05215 10.5034 3.42833 10.4065 3.84813C10.3096 4.26793 10.3537 4.70797 10.532 5.10019ZM14.331 6.48519L12.635 4.52519C13.029 4.71504 13.4748 4.76896 13.9028 4.67849C14.3307 4.58802 14.7165 4.35827 15 4.02519L15.8 2.98719L16.688 4.03919C16.9649 4.36116 17.3384 4.58506 17.7528 4.6775C18.1673 4.76995 18.6005 4.72599 18.988 4.55219L17.3 6.48519H14.331ZM5 21.2252C5 15.2372 9.852 10.3852 15.84 10.3852C21.828 10.3852 26.68 15.2372 26.67 21.2232V21.2252C26.6692 23.2804 25.8524 25.2511 24.3992 26.7044C22.946 28.1576 20.9752 28.9744 18.92 28.9752H12.75C10.6948 28.9744 8.72404 28.1576 7.2708 26.7044C5.81757 25.2511 5.0008 23.2804 5 21.2252Z" fill="black"/>
</svg>
