<svg width="89" height="23" viewBox="0 0 89 23" fill="none" xmlns="http://www.w3.org/2000/svg">
<rect x="0.25" width="88" height="23" rx="8" fill="#5570F1" fill-opacity="0.16"/>
<path d="M13.4339 7.27273V16H12.3771V7.27273H13.4339ZM16.4222 12.0625V16H15.4165V9.45455H16.3881V10.4773H16.4734C16.6268 10.1449 16.8597 9.87784 17.1722 9.67614C17.4847 9.47159 17.8881 9.36932 18.3825 9.36932C18.8256 9.36932 19.2134 9.46023 19.5458 9.64205C19.8782 9.82102 20.1367 10.0938 20.3214 10.4602C20.506 10.8239 20.5984 11.2841 20.5984 11.8409V16H19.5927V11.9091C19.5927 11.3949 19.4592 10.9943 19.1921 10.7074C18.9251 10.4176 18.5586 10.2727 18.0927 10.2727C17.7717 10.2727 17.4847 10.3423 17.2319 10.4815C16.9819 10.6207 16.7844 10.8239 16.6396 11.0909C16.4947 11.358 16.4222 11.6818 16.4222 12.0625ZM26.1861 11.7898V12.7273H22.3679V11.7898H26.1861ZM28.092 16V7.27273H31.0408C31.7255 7.27273 32.2852 7.39631 32.7198 7.64347C33.1573 7.88778 33.4812 8.21875 33.6914 8.63636C33.9016 9.05398 34.0067 9.51989 34.0067 10.0341C34.0067 10.5483 33.9016 11.0156 33.6914 11.4361C33.484 11.8565 33.163 12.1918 32.7283 12.4418C32.2937 12.6889 31.7369 12.8125 31.0579 12.8125H28.9442V11.875H31.0238C31.4925 11.875 31.869 11.794 32.1531 11.6321C32.4371 11.4702 32.6431 11.2514 32.771 10.9759C32.9016 10.6974 32.967 10.3835 32.967 10.0341C32.967 9.68466 32.9016 9.37216 32.771 9.09659C32.6431 8.82102 32.4357 8.60511 32.1488 8.44886C31.8619 8.28977 31.4812 8.21023 31.0067 8.21023H29.1488V16H28.092ZM35.5728 16V9.45455H36.5444V10.4432H36.6126C36.7319 10.1193 36.9478 9.85653 37.2603 9.65483C37.5728 9.45312 37.9251 9.35227 38.3171 9.35227C38.391 9.35227 38.4833 9.35369 38.5941 9.35653C38.7049 9.35937 38.7887 9.36364 38.8455 9.36932V10.392C38.8114 10.3835 38.7333 10.3707 38.6112 10.3537C38.4918 10.3338 38.3654 10.3239 38.2319 10.3239C37.9137 10.3239 37.6296 10.3906 37.3796 10.5241C37.1325 10.6548 36.9364 10.8366 36.7915 11.0696C36.6495 11.2997 36.5785 11.5625 36.5785 11.858V16H35.5728ZM42.4975 16.1364C41.9066 16.1364 41.3881 15.9957 40.9421 15.7145C40.4989 15.4332 40.1523 15.0398 39.9023 14.5341C39.6552 14.0284 39.5316 13.4375 39.5316 12.7614C39.5316 12.0795 39.6552 11.4844 39.9023 10.9759C40.1523 10.4673 40.4989 10.0724 40.9421 9.79119C41.3881 9.50994 41.9066 9.36932 42.4975 9.36932C43.0884 9.36932 43.6055 9.50994 44.0487 9.79119C44.4947 10.0724 44.8413 10.4673 45.0884 10.9759C45.3384 11.4844 45.4634 12.0795 45.4634 12.7614C45.4634 13.4375 45.3384 14.0284 45.0884 14.5341C44.8413 15.0398 44.4947 15.4332 44.0487 15.7145C43.6055 15.9957 43.0884 16.1364 42.4975 16.1364ZM42.4975 15.233C42.9464 15.233 43.3157 15.1179 43.6055 14.8878C43.8952 14.6577 44.1097 14.3551 44.2489 13.9801C44.3881 13.6051 44.4577 13.1989 44.4577 12.7614C44.4577 12.3239 44.3881 11.9162 44.2489 11.5384C44.1097 11.1605 43.8952 10.8551 43.6055 10.6222C43.3157 10.3892 42.9464 10.2727 42.4975 10.2727C42.0487 10.2727 41.6793 10.3892 41.3896 10.6222C41.0998 10.8551 40.8853 11.1605 40.7461 11.5384C40.6069 11.9162 40.5373 12.3239 40.5373 12.7614C40.5373 13.1989 40.6069 13.6051 40.7461 13.9801C40.8853 14.3551 41.0998 14.6577 41.3896 14.8878C41.6793 15.1179 42.0487 15.233 42.4975 15.233ZM49.6406 18.5909C49.1548 18.5909 48.7372 18.5284 48.3878 18.4034C48.0384 18.2812 47.7472 18.1193 47.5142 17.9176C47.2841 17.7188 47.1009 17.5057 46.9645 17.2784L47.7656 16.7159C47.8565 16.8352 47.9716 16.9716 48.1108 17.125C48.25 17.2812 48.4403 17.4162 48.6818 17.5298C48.9261 17.6463 49.2457 17.7045 49.6406 17.7045C50.169 17.7045 50.6051 17.5767 50.9489 17.321C51.2926 17.0653 51.4645 16.6648 51.4645 16.1193V14.7898H51.3793C51.3054 14.9091 51.2003 15.0568 51.0639 15.233C50.9304 15.4062 50.7372 15.5611 50.4844 15.6974C50.2344 15.831 49.8963 15.8977 49.4702 15.8977C48.9418 15.8977 48.4673 15.7727 48.0469 15.5227C47.6293 15.2727 47.2983 14.9091 47.054 14.4318C46.8125 13.9545 46.6918 13.375 46.6918 12.6932C46.6918 12.0227 46.8097 11.4389 47.0455 10.9418C47.2813 10.4418 47.6094 10.0554 48.0298 9.78267C48.4503 9.5071 48.9361 9.36932 49.4872 9.36932C49.9134 9.36932 50.2514 9.44034 50.5014 9.58239C50.7543 9.72159 50.9474 9.88068 51.081 10.0597C51.2173 10.2358 51.3224 10.3807 51.3963 10.4943H51.4986V9.45455H52.4702V16.1875C52.4702 16.75 52.3423 17.2074 52.0866 17.5597C51.8338 17.9148 51.4929 18.1747 51.0639 18.3395C50.6378 18.5071 50.1634 18.5909 49.6406 18.5909ZM49.6065 14.9943C50.0099 14.9943 50.3509 14.902 50.6293 14.7173C50.9077 14.5327 51.1193 14.267 51.2642 13.9205C51.4091 13.5739 51.4815 13.1591 51.4815 12.6761C51.4815 12.2045 51.4105 11.7884 51.2685 11.4276C51.1264 11.0668 50.9162 10.7841 50.6378 10.5795C50.3594 10.375 50.0156 10.2727 49.6065 10.2727C49.1804 10.2727 48.8253 10.3807 48.5412 10.5966C48.2599 10.8125 48.0483 11.1023 47.9062 11.4659C47.767 11.8295 47.6974 12.233 47.6974 12.6761C47.6974 13.1307 47.7685 13.5327 47.9105 13.8821C48.0554 14.2287 48.2685 14.5014 48.5497 14.7003C48.8338 14.8963 49.1861 14.9943 49.6065 14.9943ZM54.3111 16V9.45455H55.2827V10.4432H55.3509C55.4702 10.1193 55.6861 9.85653 55.9986 9.65483C56.3111 9.45312 56.6634 9.35227 57.0554 9.35227C57.1293 9.35227 57.2216 9.35369 57.3324 9.35653C57.4432 9.35937 57.527 9.36364 57.5838 9.36932V10.392C57.5497 10.3835 57.4716 10.3707 57.3494 10.3537C57.2301 10.3338 57.1037 10.3239 56.9702 10.3239C56.652 10.3239 56.3679 10.3906 56.1179 10.5241C55.8707 10.6548 55.6747 10.8366 55.5298 11.0696C55.3878 11.2997 55.3168 11.5625 55.3168 11.858V16H54.3111ZM61.321 16.1364C60.6903 16.1364 60.1463 15.9972 59.6889 15.7188C59.2344 15.4375 58.8835 15.0455 58.6364 14.5426C58.392 14.0369 58.2699 13.4489 58.2699 12.7784C58.2699 12.108 58.392 11.517 58.6364 11.0057C58.8835 10.4915 59.2273 10.0909 59.6676 9.80398C60.1108 9.5142 60.6278 9.36932 61.2188 9.36932C61.5597 9.36932 61.8963 9.42614 62.2287 9.53977C62.5611 9.65341 62.8636 9.83807 63.1364 10.0938C63.4091 10.3466 63.6264 10.6818 63.7884 11.0994C63.9503 11.517 64.0312 12.0312 64.0312 12.642V13.0682H58.9858V12.1989H63.0085C63.0085 11.8295 62.9347 11.5 62.7869 11.2102C62.642 10.9205 62.4347 10.6918 62.1648 10.5241C61.8977 10.3565 61.5824 10.2727 61.2188 10.2727C60.8182 10.2727 60.4716 10.3722 60.179 10.571C59.8892 10.767 59.6662 11.0227 59.5099 11.3381C59.3537 11.6534 59.2756 11.9915 59.2756 12.3523V12.9318C59.2756 13.4261 59.3608 13.8452 59.5312 14.1889C59.7045 14.5298 59.9446 14.7898 60.2514 14.9688C60.5582 15.1449 60.9148 15.233 61.321 15.233C61.5852 15.233 61.8239 15.196 62.0369 15.1222C62.2528 15.0455 62.4389 14.9318 62.5952 14.7812C62.7514 14.6278 62.8722 14.4375 62.9574 14.2102L63.929 14.483C63.8267 14.8125 63.6548 15.1023 63.4134 15.3523C63.1719 15.5994 62.8736 15.7926 62.5185 15.9318C62.1634 16.0682 61.7642 16.1364 61.321 16.1364ZM70.1974 10.9205L69.294 11.1761C69.2372 11.0256 69.1534 10.8793 69.0426 10.7372C68.9347 10.5923 68.7869 10.473 68.5994 10.3793C68.4119 10.2855 68.1719 10.2386 67.8793 10.2386C67.4787 10.2386 67.1449 10.331 66.8778 10.5156C66.6136 10.6974 66.4815 10.929 66.4815 11.2102C66.4815 11.4602 66.5724 11.6577 66.7543 11.8026C66.9361 11.9474 67.2202 12.0682 67.6065 12.1648L68.5781 12.4034C69.1634 12.5455 69.5994 12.7628 69.8864 13.0554C70.1733 13.3452 70.3168 13.7187 70.3168 14.1761C70.3168 14.5511 70.2088 14.8864 69.9929 15.1818C69.7798 15.4773 69.4815 15.7102 69.098 15.8807C68.7145 16.0511 68.2685 16.1364 67.7599 16.1364C67.0923 16.1364 66.5398 15.9915 66.1023 15.7017C65.6648 15.4119 65.3878 14.9886 65.2713 14.4318L66.2259 14.1932C66.3168 14.5455 66.4886 14.8097 66.7415 14.9858C66.9972 15.1619 67.331 15.25 67.7429 15.25C68.2116 15.25 68.5838 15.1506 68.8594 14.9517C69.1378 14.75 69.277 14.5085 69.277 14.2273C69.277 14 69.1974 13.8097 69.0384 13.6562C68.8793 13.5 68.6349 13.3835 68.3054 13.3068L67.2145 13.0511C66.6151 12.9091 66.1747 12.6889 65.8935 12.3906C65.6151 12.0895 65.4759 11.7131 65.4759 11.2614C65.4759 10.892 65.5795 10.5653 65.7869 10.2812C65.9972 9.99716 66.2827 9.77415 66.6435 9.61222C67.0071 9.45028 67.419 9.36932 67.8793 9.36932C68.527 9.36932 69.0355 9.51136 69.4048 9.79545C69.777 10.0795 70.0412 10.4545 70.1974 10.9205ZM76.467 10.9205L75.5636 11.1761C75.5067 11.0256 75.4229 10.8793 75.3121 10.7372C75.2042 10.5923 75.0565 10.473 74.869 10.3793C74.6815 10.2855 74.4414 10.2386 74.1488 10.2386C73.7482 10.2386 73.4144 10.331 73.1474 10.5156C72.8832 10.6974 72.7511 10.929 72.7511 11.2102C72.7511 11.4602 72.842 11.6577 73.0238 11.8026C73.2056 11.9474 73.4897 12.0682 73.8761 12.1648L74.8477 12.4034C75.4329 12.5455 75.869 12.7628 76.1559 13.0554C76.4428 13.3452 76.5863 13.7187 76.5863 14.1761C76.5863 14.5511 76.4783 14.8864 76.2624 15.1818C76.0494 15.4773 75.7511 15.7102 75.3675 15.8807C74.984 16.0511 74.538 16.1364 74.0295 16.1364C73.3619 16.1364 72.8093 15.9915 72.3718 15.7017C71.9343 15.4119 71.6573 14.9886 71.5408 14.4318L72.4954 14.1932C72.5863 14.5455 72.7582 14.8097 73.011 14.9858C73.2667 15.1619 73.6005 15.25 74.0124 15.25C74.4812 15.25 74.8533 15.1506 75.1289 14.9517C75.4073 14.75 75.5465 14.5085 75.5465 14.2273C75.5465 14 75.467 13.8097 75.3079 13.6562C75.1488 13.5 74.9045 13.3835 74.5749 13.3068L73.484 13.0511C72.8846 12.9091 72.4442 12.6889 72.163 12.3906C71.8846 12.0895 71.7454 11.7131 71.7454 11.2614C71.7454 10.892 71.8491 10.5653 72.0565 10.2812C72.2667 9.99716 72.5522 9.77415 72.913 9.61222C73.2766 9.45028 73.6886 9.36932 74.1488 9.36932C74.7965 9.36932 75.305 9.51136 75.6744 9.79545C76.0465 10.0795 76.3107 10.4545 76.467 10.9205Z" fill="#5570F1"/>
</svg>
