<svg width="19" height="18" viewBox="0 0 19 18" fill="none" xmlns="http://www.w3.org/2000/svg">
<path d="M9.68479 0.58541C9.74466 0.401148 10.0053 0.401148 10.0652 0.58541L12.0752 6.77163C12.102 6.85404 12.1788 6.90983 12.2654 6.90983H18.77C18.9638 6.90983 19.0443 7.15775 18.8876 7.27163L13.6253 11.0949C13.5552 11.1459 13.5258 11.2361 13.5526 11.3185L15.5626 17.5048C15.6225 17.689 15.4116 17.8422 15.2549 17.7284L9.99256 13.9051C9.92246 13.8541 9.82754 13.8541 9.75744 13.9051L4.49513 17.7284C4.33838 17.8422 4.12749 17.689 4.18736 17.5048L6.19738 11.3185C6.22416 11.2361 6.19483 11.1459 6.12473 11.0949L0.862415 7.27163C0.705672 7.15775 0.786227 6.90983 0.979972 6.90983H7.48455C7.5712 6.90983 7.64799 6.85404 7.67476 6.77163L9.68479 0.58541Z" fill="#FFD231"/>
</svg>
