<svg width="24" height="24" viewBox="0 0 24 24" fill="none" xmlns="http://www.w3.org/2000/svg">
<path fill-rule="evenodd" clip-rule="evenodd" d="M17.75 5C17.75 5.53043 17.5393 6.03914 17.1642 6.41421C16.7891 6.78929 16.2804 7 15.75 7C15.2196 7 14.7109 6.78929 14.3358 6.41421C13.9607 6.03914 13.75 5.53043 13.75 5C13.75 4.46957 13.9607 3.96086 14.3358 3.58579C14.7109 3.21071 15.2196 3 15.75 3C16.2804 3 16.7891 3.21071 17.1642 3.58579C17.5393 3.96086 17.75 4.46957 17.75 5ZM16.75 5C16.75 5.26522 16.6446 5.51957 16.4571 5.70711C16.2696 5.89464 16.0152 6 15.75 6C15.4848 6 15.2304 5.89464 15.0429 5.70711C14.8554 5.51957 14.75 5.26522 14.75 5C14.75 4.73478 14.8554 4.48043 15.0429 4.29289C15.2304 4.10536 15.4848 4 15.75 4C16.0152 4 16.2696 4.10536 16.4571 4.29289C16.6446 4.48043 16.75 4.73478 16.75 5ZM5.5 14C5.5 13.7348 5.60536 13.4804 5.79289 13.2929C5.98043 13.1054 6.23478 13 6.5 13H8C8.26522 13 8.51957 13.1054 8.70711 13.2929C8.89464 13.4804 9 13.7348 9 14V15H10.5C10.7652 15 11.0196 15.1054 11.2071 15.2929C11.3946 15.4804 11.5 15.7348 11.5 16V20C11.5 20.2652 11.3946 20.5196 11.2071 20.7071C11.0196 20.8946 10.7652 21 10.5 21H4C3.73478 21 3.48043 20.8946 3.29289 20.7071C3.10536 20.5196 3 20.2652 3 20V16C3 15.7348 3.10536 15.4804 3.29289 15.2929C3.48043 15.1054 3.73478 15 4 15H5.5V14ZM4 20V16H5V20H4ZM8 14V15H6.5V14H8ZM8.5 16H6V20H8.5V16ZM9.5 16V20H10.5V16H9.5Z" fill="#9094A0"/>
<path d="M19 11C19 10.7348 18.8946 10.4804 18.7071 10.2929C18.5196 10.1054 18.2652 10 18 10V12C18.2652 12 18.5196 11.8946 18.7071 11.7071C18.8946 11.5196 19 11.2652 19 11Z" fill="#9094A0"/>
<path fill-rule="evenodd" clip-rule="evenodd" d="M14 21C13.6022 21 13.2206 20.842 12.9393 20.5607C12.658 20.2794 12.5 19.8978 12.5 19.5V11H10C9.60218 11 9.22064 10.842 8.93934 10.5607C8.65804 10.2794 8.5 9.89782 8.5 9.5C8.5 9.10218 8.65804 8.72064 8.93934 8.43934C9.22064 8.15804 9.60218 8 10 8H18.508C19.0645 8 21 8.682 21 10.7855C21 12.455 19.7815 13.499 19 13.859V19.5C19 19.8978 18.842 20.2794 18.5607 20.5607C18.2794 20.842 17.8978 21 17.5 21C17.1022 21 16.7206 20.842 16.4393 20.5607C16.158 20.2794 16 19.8978 16 19.5V15.5H15.5V19.5C15.5 19.8505 15.38 20.173 15.178 20.4285C15.0378 20.6068 14.8589 20.7509 14.6548 20.8499C14.4507 20.9489 14.2268 21.0002 14 21ZM18 13.2185L18.5815 12.9505C19.1535 12.687 20 11.927 20 10.7855C20 10.0885 19.6975 9.6665 19.346 9.391C19.1753 9.25815 18.9855 9.15195 18.783 9.076C18.6953 9.04174 18.6043 9.01661 18.5115 9.001C18.5045 9 18.5035 9 18.5075 9H10C9.86739 9 9.74021 9.05268 9.64645 9.14645C9.55268 9.24021 9.5 9.36739 9.5 9.5C9.5 9.63261 9.55268 9.75979 9.64645 9.85355C9.74021 9.94732 9.86739 10 10 10H13.5V19.5C13.5 19.6326 13.5527 19.7598 13.6464 19.8536C13.7402 19.9473 13.8674 20 14 20C14.1326 20 14.2598 19.9473 14.3536 19.8536C14.4473 19.7598 14.5 19.6326 14.5 19.5V14.5H17V19.5C17 19.6326 17.0527 19.7598 17.1464 19.8536C17.2402 19.9473 17.3674 20 17.5 20C17.6326 20 17.7598 19.9473 17.8536 19.8536C17.9473 19.7598 18 19.6326 18 19.5V13.2185Z" fill="#9094A0"/>
</svg>
