<svg width="80" height="80" viewBox="0 0 80 80" fill="none" xmlns="http://www.w3.org/2000/svg">
<g clip-path="url(#clip0_416_6455)">
<path d="M33.3346 53.3324H46.668C48.5013 53.3324 50.0013 51.8324 50.0013 49.9991V33.3324H55.3013C58.268 33.3324 59.768 29.7324 57.668 27.6324L42.368 12.3324C41.068 11.0324 38.968 11.0324 37.668 12.3324L22.368 27.6324C20.268 29.7324 21.7346 33.3324 24.7013 33.3324H30.0013V49.9991C30.0013 51.8324 31.5013 53.3324 33.3346 53.3324ZM20.0013 59.9991H60.0013C61.8346 59.9991 63.3346 61.4991 63.3346 63.3324C63.3346 65.1658 61.8346 66.6658 60.0013 66.6658H20.0013C18.168 66.6658 16.668 65.1658 16.668 63.3324C16.668 61.4991 18.168 59.9991 20.0013 59.9991Z" fill="#BBA664"/>
</g>
<defs>
<clipPath id="clip0_416_6455">
<rect width="80" height="80" fill="white"/>
</clipPath>
</defs>
</svg>
