<svg width="36" height="36" viewBox="0 0 36 36" fill="none" xmlns="http://www.w3.org/2000/svg">
<rect width="36" height="36" rx="8" transform="matrix(-1 0 0 1 36 0)" fill="#FFCC91" fill-opacity="0.16"/>
<path fill-rule="evenodd" clip-rule="evenodd" d="M20.0054 20.6719C16.9312 20.6719 14.3037 21.1377 14.3037 22.9985C14.3037 24.8594 16.9137 25.3385 20.0054 25.3385C23.0804 25.3385 25.707 24.8769 25.707 23.0152C25.707 21.1535 23.0979 20.6719 20.0054 20.6719Z" stroke="#1C1D22" stroke-width="1.5" stroke-linecap="round" stroke-linejoin="round"/>
<path fill-rule="evenodd" clip-rule="evenodd" d="M20.0052 18.0154C22.0235 18.0154 23.6602 16.3795 23.6602 14.3612C23.6602 12.3429 22.0235 10.707 20.0052 10.707C17.9877 10.707 16.351 12.3429 16.351 14.3612C16.3435 16.372 17.9685 18.0079 19.9793 18.0154H20.0052Z" stroke="#1C1D22" stroke-width="1.5" stroke-linecap="round" stroke-linejoin="round"/>
<path d="M14.2617 17.0684C12.9276 16.8809 11.9001 15.7359 11.8976 14.3501C11.8976 12.9842 12.8934 11.8509 14.1992 11.6367" stroke="#1C1D22" stroke-width="1.5" stroke-linecap="round" stroke-linejoin="round"/>
<path d="M12.5039 20.2773C11.2114 20.4698 10.3089 20.9232 10.3089 21.8565C10.3089 22.499 10.7339 22.9157 11.4206 23.1765" stroke="#1C1D22" stroke-width="1.5" stroke-linecap="round" stroke-linejoin="round"/>
</svg>
